<mxfile host="app.diagrams.net" modified="2023-04-12T05:54:02.674Z" agent="Mozilla/5.0 (Windows NT 10.0; Win64; x64) AppleWebKit/537.36 (KHTML, like Gecko) Chrome/112.0.0.0 Safari/537.36" version="21.1.4" etag="Z0gAzLCEAZ9ncs-VP4Et" type="github">
  <diagram name="Page-1" id="G3Vv8pRcnODFCT907IPi">
    <mxGraphModel>
      <root>
        <mxCell id="0" />
        <mxCell id="1" parent="0" />
      </root>
    </mxGraphModel>
  </diagram>
</mxfile>
